<?xml version="1.0" encoding="UTF-8" standalone="no"?>
<svg
   xmlns:dc="http://purl.org/dc/elements/1.1/"
   xmlns:cc="http://creativecommons.org/ns#"
   xmlns:rdf="http://www.w3.org/1999/02/22-rdf-syntax-ns#"
   xmlns:svg="http://www.w3.org/2000/svg"
   xmlns="http://www.w3.org/2000/svg"
   xmlns:sodipodi="http://sodipodi.sourceforge.net/DTD/sodipodi-0.dtd"
   xmlns:inkscape="http://www.inkscape.org/namespaces/inkscape"
   height="21.39999"
   viewBox="0 0 21.39999 21.39999"
   width="21.39999"
   version="1.1"
   id="svg6"
   sodipodi:docname="icon.svg"
   style="fill:#000000"
   inkscape:version="0.92.3 (2405546, 2018-03-11)">
  <metadata
     id="metadata12">
    <rdf:RDF>
      <cc:Work
         rdf:about="">
        <dc:format>image/svg+xml</dc:format>
        <dc:type
           rdf:resource="http://purl.org/dc/dcmitype/StillImage" />
        <dc:title></dc:title>
      </cc:Work>
    </rdf:RDF>
  </metadata>
  <defs
     id="defs10" />
  <sodipodi:namedview
     pagecolor="#00ff00"
     bordercolor="#666666"
     borderopacity="1"
     objecttolerance="10"
     gridtolerance="10"
     guidetolerance="10"
     inkscape:pageopacity="0"
     inkscape:pageshadow="2"
     inkscape:window-width="1920"
     inkscape:window-height="1001"
     id="namedview8"
     showgrid="false"
     fit-margin-top="0"
     fit-margin-left="0"
     fit-margin-right="0"
     fit-margin-bottom="0"
     inkscape:zoom="19.666667"
     inkscape:cx="12.11372"
     inkscape:cy="9.3052979"
     inkscape:window-x="-9"
     inkscape:window-y="-9"
     inkscape:window-maximized="1"
     inkscape:current-layer="svg6" />
  <path
     d="M -16.952542,-14.622309 H 7.0474576 V 9.3776909 H -16.952542 Z"
     id="path2"
     inkscape:connector-curvature="0"
     style="fill:none" />
  <g
     id="g4581"
     transform="translate(-1.300005,-1.096883)">
    <path
       id="path4526"
       d="M 15.880859,1.296875 3.2402344,6.4472656 C 2.5102344,6.7272656 2,7.466875 2,8.296875 v 12 c 0,1.1 0.89,2 2,2 h 16 c 1.11,0 2,-0.9 2,-2 v -12 c 0,-1.11 -0.89,-2 -2,-2 H 8.3007812 L 16.560547,2.9570312 Z M 12,8.796875 h 3.830078 v 2.552734 h -2.552734 v 6.384766 c 0,1.410904 -1.143785,2.554687 -2.554688,2.554687 -1.4109032,0 -2.5527341,-1.143783 -2.5527341,-2.554687 0,-1.410903 1.1418309,-2.552734 2.5527341,-2.552734 0.466046,0 0.900677,0.132547 1.277344,0.349609 z"
       style="fill:#000000;stroke:#ffffff;stroke-width:0.40000001;stroke-linecap:round;stroke-linejoin:round;stroke-miterlimit:4;stroke-dasharray:none;stroke-opacity:1"
       inkscape:connector-curvature="0" />
    <path
       id="path4547"
       d="M 6.5843147,7.8530146 V 12.649982 C 6.3160483,12.495388 6.0068599,12.399903 5.6749371,12.399903 c -1.0048624,0 -1.8187554,0.813893 -1.8187554,1.818756 0,1.004862 0.813893,1.818755 1.8187554,1.818755 1.0048623,0 1.8187553,-0.813893 1.8187553,-1.818755 V 9.6717696 h 1.8187554 v -1.818755 z"
       inkscape:connector-curvature="0"
       style="fill:#ffffff;fill-opacity:1;stroke-width:0.45468885" />
    <path
       id="path4547-6"
       d="m 17.833472,12.716883 v 4.796968 c -0.268266,-0.154594 -0.577455,-0.250079 -0.909377,-0.250079 -1.004863,0 -1.818756,0.813893 -1.818756,1.818756 0,1.004862 0.813893,1.818755 1.818756,1.818755 1.004862,0 1.818755,-0.813893 1.818755,-1.818755 v -4.54689 h 1.818755 v -1.818755 z"
       inkscape:connector-curvature="0"
       style="fill:#ffffff;fill-opacity:1;stroke-width:0.45468885" />
  </g>
</svg>
